<?xml version="1.0" encoding="utf-8"?>
<!-- Generator: Adobe Illustrator 24.0.3, SVG Export Plug-In . SVG Version: 6.00 Build 0)  -->
<svg version="1.1" id="Layer_1" xmlns="http://www.w3.org/2000/svg" xmlns:xlink="http://www.w3.org/1999/xlink" x="0px" y="0px"
	 viewBox="0 0 24 24" style="enable-background:new 0 0 24 24;" xml:space="preserve">
<style type="text/css">
	.st0{fill:#0078FF;}
</style>
<title>Messenger icon</title>
<path class="st0" d="M0,11.6C0,4.9,5.2,0,12,0s12,4.9,12,11.6s-5.2,11.6-12,11.6c-1.2,0-2.4-0.2-3.5-0.5c-0.2-0.1-0.4,0-0.6,0
	l-2.4,1c-0.5,0.2-1.1,0-1.3-0.5c-0.1-0.1-0.1-0.2-0.1-0.4l-0.1-2.1c0-0.3-0.1-0.5-0.3-0.7C1.3,18.1,0,14.9,0,11.6z M8.3,9.5
	l-3.5,5.6c-0.3,0.5,0.3,1.1,0.8,0.8l3.8-2.9c0.3-0.2,0.6-0.2,0.9,0l2.8,2.1c0.8,0.6,2,0.4,2.6-0.5L19.2,9c0.4-0.5-0.3-1.1-0.8-0.8
	l-3.8,2.9c-0.2,0.2-0.6,0.2-0.9,0L10.9,9C10.1,8.4,9,8.5,8.4,9.3C8.4,9.4,8.3,9.4,8.3,9.5z"/>
</svg>
