<svg id="Calque_1" data-name="Calque 1" xmlns="http://www.w3.org/2000/svg" viewBox="0 0 3000 1500"><title>Logo Bim - Noir</title><path d="M299.69,347.08l481.17,805.83,481.19-805.83Zm822,79.64-84.06,140.77H524.06L440,426.72ZM571.61,647.13H990.12L780.86,997.58Z"/><rect x="1921.6" y="645.32" width="94.24" height="404.3"/><path d="M2014.84,456.56c-12.6-12.58-28.22-19-46.46-19-17.55,0-32.89,6.3-45.58,18.73s-19.2,28.1-19.2,46.38a64.73,64.73,0,0,0,64.78,64.78c18.25,0,33.87-6.37,46.47-19a62.69,62.69,0,0,0,19-45.81C2033.8,484.69,2027.43,469.16,2014.84,456.56Z"/><path d="M2530.37,635.42a169.31,169.31,0,0,0-122.65,52.64,169,169,0,0,0-226.45-17l-.85.46-23.66-26.24h-41.64v404.3h94.23V805.37a75.65,75.65,0,0,1,151.24-3.28c0,1.1-.17,2.17-.17,3.28v244.25H2455V805.37c0-1.11-.15-2.18-.17-3.28a75.65,75.65,0,0,1,151.24,3.28v244.25h94.24V805.37C2700.31,711.66,2624.08,635.42,2530.37,635.42Z"/><path d="M1655,638.49c-45.63,0-87.64,15.87-121.52,42.32V450.38h-94.25v599.24h58.55l23.57-26.15,9.19-11.6c34.37,27.82,77.51,44.57,124.46,44.57,111.52,0,202.25-93.74,202.25-209S1766.53,638.49,1655,638.49Zm-6.72,323.72A114.74,114.74,0,1,1,1763,847.48,114.87,114.87,0,0,1,1648.29,962.21Z"/></svg>