<svg id="Livello_1" data-name="Livello 1" xmlns="http://www.w3.org/2000/svg" viewBox="0 0 910 651.02"><title>logo-1.0dd</title><path d="M910,299.1H759.63l62.26-127.65L774.4,148.29l-24.37,50A326.81,326.81,0,0,0,652.88,70.35C595,24.33,525.23,0,451.12,0,280.76,0,140.64,132,127.68,299.1H0v52.83H142.62L80.36,479.57l47.48,23.16,24.37-50A324.43,324.43,0,0,0,451.12,651c170.37,0,310.48-132,323.45-299.09H910ZM451.12,52.83A268.72,268.72,0,0,1,620,111.7a273.79,273.79,0,0,1,79.74,103.41L650.33,191l-23.16,47.48L751.42,299.1H180.71C193.53,161.17,309.91,52.83,451.12,52.83Zm0,545.36A271.66,271.66,0,0,1,202.45,435.88L251.92,460l23.16-47.48-124.25-60.6h570.7C708.71,489.85,592.34,598.19,451.12,598.19Z" style="fill:#fff"/></svg>